<svg width="21" height="20" viewBox="0 0 21 20" fill="none" xmlns="http://www.w3.org/2000/svg">
<path d="M19.3986 17.2804C19.8969 17.7811 19.8969 18.5928 19.3986 19.0935V19.0935C18.9004 19.5941 18.0926 19.5941 17.5943 19.0935L1.29951 2.71957C0.801267 2.21891 0.801267 1.40718 1.29951 0.906524V0.906524C1.79775 0.405864 2.60556 0.405864 3.1038 0.906524L19.3986 17.2804Z" fill="white"/>
<path d="M3.06355 19.0497C2.56273 19.5478 1.75214 19.5464 1.25304 19.0466V19.0466C0.753934 18.5468 0.755325 17.7378 1.25614 17.2398L17.6351 0.95028C18.1359 0.452199 18.9465 0.453593 19.4456 0.953394V0.953394C19.9447 1.4532 19.9433 2.26214 19.4425 2.76022L3.06355 19.0497Z" fill="white"/>
</svg>
